<?xml version="1.0" encoding="utf-8" ?>
<svg baseProfile="tiny" height="100%" version="1.2" width="100%" xmlns="http://www.w3.org/2000/svg" xmlns:ev="http://www.w3.org/2001/xml-events" xmlns:xlink="http://www.w3.org/1999/xlink"><defs /><polyline fill="none" points="13,47 13,49 15,49 15,48 14,47" stroke="black" stroke-width="1" /><polyline fill="none" points="37,46 36,47 33,47 32,48 31,48 30,49 24,49 23,48 22,48 23,48 24,49 23,50 22,50 23,50 24,51 30,51 31,50 32,50 33,49 36,49 33,49 32,48 33,47 36,47" stroke="black" stroke-width="1" /><polyline fill="none" points="17,46 18,47 19,47 20,48 19,49 18,49 20,49 20,47 18,47" stroke="black" stroke-width="1" /><polyline fill="none" points="41,44 42,44" stroke="black" stroke-width="1" /><polyline fill="none" points="25,44 27,44 28,45 27,46 25,46 28,46 28,44" stroke="black" stroke-width="1" /><polyline fill="none" points="9,43 9,45 11,45 12,44 13,44 12,44 11,45 10,45 9,44 10,43" stroke="black" stroke-width="1" /><polyline fill="none" points="41,42 42,42" stroke="black" stroke-width="1" /><polyline fill="none" points="33,42 32,43 30,43 32,43 33,44 32,45 30,45 32,45 33,44 34,44 33,44 32,43 33,42 34,42" stroke="black" stroke-width="1" /><polyline fill="none" points="20,42 21,42 22,43 21,44 20,44 21,44 22,45 23,45 22,45 21,44 22,43 23,43 22,43 21,42" stroke="black" stroke-width="1" /><polyline fill="none" points="12,42 13,42" stroke="black" stroke-width="1" /><polyline fill="none" points="36,41 38,41 39,42 38,43 36,43 39,43 39,41" stroke="black" stroke-width="1" /><polyline fill="none" points="15,41 17,41 18,42 17,43 15,43 18,43 18,41" stroke="black" stroke-width="1" /><polyline fill="none" points="19,38 20,38" stroke="black" stroke-width="1" /><polyline fill="none" points="5,38 4,39 5,40 8,40 8,38" stroke="black" stroke-width="1" /><polyline fill="none" points="37,37 38,37" stroke="black" stroke-width="1" /><polyline fill="none" points="22,37 23,37 24,38 23,39 22,39 23,39 24,40 29,40 29,38 24,38 23,37" stroke="black" stroke-width="1" /><polyline fill="none" points="16,37 17,37" stroke="black" stroke-width="1" /><polyline fill="none" points="40,36 42,36 43,37 42,38 40,38 42,38 43,39 44,39 43,39 42,38 43,37 44,37 43,37 42,36" stroke="black" stroke-width="1" /><polyline fill="none" points="33,36 32,37 31,37 32,37 33,38 32,39 31,39 32,39 33,38 35,38 35,36" stroke="black" stroke-width="1" /><polyline fill="none" points="19,36 20,36" stroke="black" stroke-width="1" /><polyline fill="none" points="12,36 11,37 10,37 11,37 12,38 11,39 10,39 11,39 12,38 14,38 14,36" stroke="black" stroke-width="1" /><polyline fill="none" points="37,35 38,35" stroke="black" stroke-width="1" /><polyline fill="none" points="16,35 17,35" stroke="black" stroke-width="1" /><polyline fill="none" points="49,21 49,28 51,28 51,21 51,27 50,28 49,27" stroke="black" stroke-width="1" /><polyline fill="none" points="0,21 0,28 1,27 2,28 2,21 2,23 1,24 0,23" stroke="black" stroke-width="1" /><polyline fill="none" points="50,18 50,19" stroke="black" stroke-width="1" /><polyline fill="none" points="46,14 46,15 47,16 47,17 48,18 48,19 48,18 47,17 47,16 46,15" stroke="black" stroke-width="1" /><polyline fill="none" points="48,13 48,14 49,15 49,16 49,15 48,14" stroke="black" stroke-width="1" /><polyline fill="none" points="3,13 3,14 2,15 2,16 1,17 1,18 1,17 2,16 3,17 3,18 3,17 4,16 4,15 6,13 5,13 5,14 4,15 3,14" stroke="black" stroke-width="1" /><polyline fill="none" points="43,11 44,12" stroke="black" stroke-width="1" /><polyline fill="none" points="5,10 4,11 5,11" stroke="black" stroke-width="1" /><polyline fill="none" points="44,9 45,9 46,10 45,9" stroke="black" stroke-width="1" /><polyline fill="none" points="42,9" stroke="black" stroke-width="1" /><polyline fill="none" points="10,7 10,8 8,10 7,10 7,11 11,7" stroke="black" stroke-width="1" /><polyline fill="none" points="38,6 40,8 39,7 39,6" stroke="black" stroke-width="1" /><polyline fill="none" points="8,6 6,8" stroke="black" stroke-width="1" /><polyline fill="none" points="41,5 42,6 42,7 43,7" stroke="black" stroke-width="1" /><polyline fill="none" points="11,4 10,5 11,5" stroke="black" stroke-width="1" /><polyline fill="none" points="37,3 38,4 39,4 38,4" stroke="black" stroke-width="1" /><polyline fill="none" points="15,2 14,3 13,3 14,3 15,4 14,5 13,5 13,6 15,4 16,4 15,4 14,3 15,2 16,2" stroke="black" stroke-width="1" /><polyline fill="none" points="32,1 33,1 34,2 33,3 32,3 33,3 34,4 35,4 34,4 33,3 34,2 35,2 34,2 33,1" stroke="black" stroke-width="1" /><polyline fill="none" points="18,1 19,1 20,2 19,3 18,3 20,3 20,1" stroke="black" stroke-width="1" /><polyline fill="none" points="22,0 28,0 29,1 28,2 22,2 29,2 29,0" stroke="black" stroke-width="1" /></svg>